<svg width="1439" height="820" viewBox="0 0 1439 820" fill="none" xmlns="http://www.w3.org/2000/svg">
<path d="M420.543 -620.423L840.586 -378.985V694.207L420.543 935.66L0.5 694.207V-378.985L420.543 -620.423Z" fill="url(#paint0_linear_)" stroke="black"/>
<g style="mix-blend-mode:luminosity" opacity="0.4">
<path d="M214.435 815.927L5.71851 695.769V455.48L214.435 335.322L423.152 455.48V695.769L214.435 815.927Z" fill="url(#paint1_linear_)" stroke="black"/>
<path d="M214.435 575.047L5.71851 454.89V214.6L214.435 94.442L423.152 214.6V454.89L214.435 575.047Z" fill="url(#paint2_linear_)" stroke="black"/>
<path d="M423.652 454.664L632.369 334.506V94.2166L423.652 -25.9411L214.936 94.2166V334.506L423.652 454.664Z" fill="url(#paint3_linear_)" stroke="black"/>
<path d="M632.868 335.321L424.151 455.479V695.769L632.868 815.926L841.585 695.769V455.479L632.868 335.321Z" fill="url(#paint4_linear_)" stroke="black"/>
<path d="M633.217 -387.423L424.5 -267.265V-26.9756L633.217 93.1821L841.933 -26.9756V-267.265L633.217 -387.423Z" fill="url(#paint5_linear_)" stroke="black"/>
<path d="M632.869 575.047L841.585 454.89V214.6L632.869 94.442L424.152 214.6V454.89L632.869 575.047Z" fill="url(#paint6_linear_)" stroke="black"/>
<path d="M423.652 455.818L632.369 575.976V816.265L423.652 936.423L214.936 816.265L214.936 575.976L423.652 455.818Z" fill="url(#paint7_linear_)" stroke="black"/>
</g>
<path d="M1260.54 -620.423L840.5 -378.985V694.207L1260.54 935.66L1680.59 694.207V-378.985L1260.54 -620.423Z" fill="url(#paint8_linear_)" stroke="black"/>
<g style="mix-blend-mode:luminosity" opacity="0.4">
<path d="M1468.65 815.927L1677.37 695.769V455.48L1468.65 335.322L1259.93 455.48V695.769L1468.65 815.927Z" fill="url(#paint9_linear_)" stroke="black"/>
<path d="M1468.65 575.047L1677.37 454.89V214.6L1468.65 94.442L1259.93 214.6V454.89L1468.65 575.047Z" fill="url(#paint10_linear_)" stroke="black"/>
<path d="M1259.43 454.664L1050.72 334.506V94.2165L1259.43 -25.9412L1468.15 94.2165V334.506L1259.43 454.664Z" fill="url(#paint11_linear_)" stroke="black"/>
<path d="M1050.22 335.321L1258.93 455.479V695.768L1050.22 815.926L841.5 695.768V455.479L1050.22 335.321Z" fill="url(#paint12_linear_)" stroke="black"/>
<path d="M1050.22 335.321L1258.93 455.479V695.768L1050.22 815.926L841.5 695.768V455.479L1050.22 335.321Z" fill="url(#paint13_linear_)" stroke="black"/>
<path d="M1051.22 -387.423L1259.93 -267.265V-26.9756L1051.22 93.1821L842.5 -26.9756V-267.265L1051.22 -387.423Z" fill="url(#paint14_linear_)" stroke="black"/>
<path d="M1050.22 575.047L841.5 454.89V214.6L1050.22 94.442L1258.93 214.6V454.89L1050.22 575.047Z" fill="url(#paint15_linear_)" stroke="black"/>
<path d="M1050.22 575.047L841.5 454.89V214.6L1050.22 94.442L1258.93 214.6V454.89L1050.22 575.047Z" fill="url(#paint16_linear_)" stroke="black"/>
<path d="M1259.43 455.818L1050.72 575.976V816.265L1259.43 936.423L1468.15 816.265V575.976L1259.43 455.818Z" fill="url(#paint17_linear_)" stroke="black"/>
</g>
<path fill-rule="evenodd" clip-rule="evenodd" d="M113.623 82.0055C113.624 84.3689 112.912 86.6797 111.576 88.6458C110.24 90.6118 108.34 92.1446 106.117 93.0504C103.893 93.9561 101.446 94.1941 99.0842 93.7341C96.7227 93.2742 94.5533 92.1371 92.8503 90.4666C91.1473 88.7961 89.9873 86.6672 89.5169 84.3493C89.3822 83.6857 89.3058 83.0151 89.287 82.3447C89.1991 85.2538 87.9835 88.0257 85.8811 90.0898C83.697 92.2339 80.7348 93.4384 77.646 93.4384H66V70.5722H77.646C80.7348 70.5722 83.697 71.7768 85.8811 73.9209C87.9858 75.9872 89.2017 78.7629 89.2872 81.6755C89.3291 80.2295 89.6384 78.7954 90.2078 77.445C91.1286 75.2613 92.6885 73.3948 94.6901 72.0816C96.6917 70.7684 99.045 70.0674 101.452 70.0674C104.677 70.0724 107.768 71.3315 110.049 73.569C112.33 75.8065 113.615 78.84 113.623 82.0055ZM144.145 70.5717L140.836 82.5288L137.536 70.5717H131.46L128.112 82.5669L124.803 70.5717H115.428L123.696 93.4378H131.46L134.508 84.1675L137.536 93.4378H145.3L153.52 70.5717H144.145ZM178.074 70.5717V93.4378H169.242V85.2536H163.739V93.4378H154.908V70.5717H163.739V78.7559H169.252V70.5717H178.074ZM181.383 70.5717V93.4378H190.205V70.5717H181.383ZM209.518 86.8924V93.4378H193.514V70.5717H202.346V86.9305L209.518 86.8924ZM220.543 79.2608V77.079L227.715 77.1171V70.5717H211.721V93.4378H227.715V86.8924H220.543V84.7106H226.065V79.2608H220.543Z" fill="url(#paint18_linear_)"/>
<path d="M255.646 70.7146L252.502 70.2477C252.405 70.2477 252.308 70.2477 252.308 70.3335L250.968 72.0199C250.9 72.1314 250.869 72.2616 250.881 72.3914C250.881 72.4867 250.784 72.6772 250.687 72.582L249.639 72.3057C249.445 72.3057 249.26 72.3057 249.163 72.4867L244.874 77.9174C244.777 78.0127 244.68 78.0127 244.495 78.0127L242.874 77.26C242.804 77.2137 242.721 77.189 242.637 77.189C242.552 77.189 242.469 77.2137 242.399 77.26L241.535 77.8221C241.465 77.8697 241.382 77.8952 241.297 77.8952C241.212 77.8952 241.129 77.8697 241.059 77.8221L240.681 77.6316C240.618 77.6041 240.55 77.5898 240.482 77.5895C240.413 77.5891 240.345 77.6029 240.282 77.6298C240.219 77.6566 240.162 77.6961 240.116 77.7457C240.069 77.7952 240.034 77.8537 240.011 77.9174L239.73 79.2227C239.693 79.3614 239.701 79.5077 239.751 79.6422C239.801 79.7766 239.892 79.8928 240.011 79.9754L240.778 80.4422L242.777 81.6618L243.748 82.2239C243.882 82.299 244.037 82.3304 244.191 82.3132C244.344 82.2961 244.488 82.2314 244.602 82.1286L246.223 80.728C246.368 80.6416 246.54 80.6079 246.708 80.6328L247.183 80.909C247.368 81.0043 247.562 81.0043 247.659 80.8138L248.513 80.0706C248.572 80.008 248.65 79.9652 248.735 79.9481C248.82 79.9311 248.909 79.9406 248.989 79.9754L250.231 80.5375C250.425 80.6328 250.609 80.5375 250.803 80.4422L251.376 79.6991L255.666 74.2684C255.85 73.9825 255.763 73.611 255.374 73.611L254.404 73.4299C254.21 73.4299 254.122 73.1441 254.21 72.9535L255.743 71.1814C255.937 70.9909 255.831 70.7146 255.646 70.7146Z" fill="white"/>
<path d="M241.38 81.6617C241.283 81.5664 241.186 81.6617 241.186 81.7569L241.661 82.967V83.2528L241.283 84.8439C241.276 84.8941 241.282 84.9452 241.299 84.993C241.316 85.0409 241.343 85.0844 241.38 85.1202L242.515 85.9681C242.571 86.0098 242.639 86.0325 242.709 86.0325C242.779 86.0325 242.848 86.0098 242.903 85.9681L244.136 84.9392C244.174 84.9032 244.22 84.8759 244.271 84.8595C244.321 84.843 244.374 84.8376 244.427 84.8439L245.757 84.6534C245.854 84.6534 245.854 84.5581 245.757 84.4628L241.38 81.6617Z" fill="white"/>
<path d="M240.962 85.6824C240.946 85.6607 240.925 85.6431 240.901 85.631C240.876 85.6188 240.849 85.6125 240.822 85.6125C240.794 85.6125 240.767 85.6188 240.743 85.631C240.718 85.6431 240.697 85.6607 240.681 85.6824L239.711 86.1492C239.685 86.1492 239.66 86.1593 239.642 86.1771C239.624 86.195 239.613 86.2192 239.613 86.2445L237.517 91.2941H237.614L238.09 91.1131V91.2083L236.566 93.6379C236.566 93.7332 236.566 93.7332 236.653 93.7332L241.991 88.3978C242.088 88.3978 242.088 88.3025 242.088 88.2072L242.185 86.8066C242.185 86.7113 242.185 86.6161 242.088 86.6161L240.962 85.6824Z" fill="white"/>
<path d="M282.597 86.8926V93.4381H261.091C261.091 93.4381 271.32 82.4052 272.669 79.8137C273.736 77.7748 272.601 76.5457 271.562 76.5457C270.524 76.5457 269.359 77.1269 269.359 79.8137L261.159 79.2706C261.159 74.1638 264.808 70.0098 271.562 70.0098C278.074 70.0098 282.044 73.3825 282.044 78.1844C282.044 81.1761 279.423 84.587 276.531 86.9022L282.597 86.8926Z" fill="white"/>
<path d="M306.86 82.0054C306.86 88.6175 302.405 94.0006 295.825 94.0006C289.245 94.0006 284.8 88.6175 284.8 82.0054C284.8 75.3933 289.245 70.0197 295.825 70.0197C302.405 70.0197 306.86 75.3361 306.86 82.0054Z" fill="white"/>
<path d="M330.569 86.8926V93.4381H309.063C309.063 93.4381 319.292 82.4052 320.641 79.8137C321.708 77.7748 320.573 76.5457 319.534 76.5457C318.496 76.5457 317.331 77.1269 317.331 79.8137L309.131 79.2706C309.131 74.1638 312.78 70.0098 319.534 70.0098C326.047 70.0098 330.016 73.3825 330.016 78.1844C330.016 81.1761 327.396 84.587 324.503 86.9022L330.569 86.8926Z" fill="white"/>
<path d="M346 70V93.4378H337.178V78.1937L333.296 78.6701V72.096L346 70Z" fill="white"/>
<defs>
<linearGradient id="paint0_linear_" x1="-152.286" y1="449.686" x2="978.143" y2="838.6" gradientUnits="userSpaceOnUse">
<stop stop-color="#6C2B2B"/>
<stop offset="1" stop-color="#FFCD1E"/>
</linearGradient>
<linearGradient id="paint1_linear_" x1="214.435" y1="805.426" x2="6.11943" y2="449.929" gradientUnits="userSpaceOnUse">
<stop stop-color="#8257E5"/>
<stop offset="1" stop-color="#FF008E" stop-opacity="0"/>
</linearGradient>
<linearGradient id="paint2_linear_" x1="214.435" y1="564.546" x2="6.11939" y2="209.049" gradientUnits="userSpaceOnUse">
<stop stop-color="#8257E5"/>
<stop offset="1" stop-color="#FF008E" stop-opacity="0"/>
</linearGradient>
<linearGradient id="paint3_linear_" x1="214.436" y1="80.3905" x2="632.223" y2="332.502" gradientUnits="userSpaceOnUse">
<stop stop-color="#FF008E" stop-opacity="0"/>
<stop offset="1" stop-color="#FFCD1E"/>
</linearGradient>
<linearGradient id="paint4_linear_" x1="842.085" y1="709.595" x2="424.297" y2="457.483" gradientUnits="userSpaceOnUse">
<stop stop-color="#FF008E" stop-opacity="0"/>
<stop offset="1" stop-color="#FFCD1E"/>
</linearGradient>
<linearGradient id="paint5_linear_" x1="842.433" y1="-13.1495" x2="424.646" y2="-265.261" gradientUnits="userSpaceOnUse">
<stop stop-color="#FF008E" stop-opacity="0"/>
<stop offset="1" stop-color="#FFCD1E"/>
</linearGradient>
<linearGradient id="paint6_linear_" x1="632.869" y1="564.546" x2="841.185" y2="209.049" gradientUnits="userSpaceOnUse">
<stop stop-color="#8257E5"/>
<stop offset="1" stop-color="#FF008E" stop-opacity="0"/>
</linearGradient>
<linearGradient id="paint7_linear_" x1="423.652" y1="466.319" x2="631.968" y2="821.816" gradientUnits="userSpaceOnUse">
<stop stop-color="#8257E5"/>
<stop offset="1" stop-color="#FF008E" stop-opacity="0"/>
</linearGradient>
<linearGradient id="paint8_linear_" x1="1833.37" y1="449.686" x2="702.943" y2="838.6" gradientUnits="userSpaceOnUse">
<stop stop-color="#6C2B2B"/>
<stop offset="1" stop-color="#FFCD1E"/>
</linearGradient>
<linearGradient id="paint9_linear_" x1="1468.65" y1="805.426" x2="1676.97" y2="449.929" gradientUnits="userSpaceOnUse">
<stop stop-color="#8257E5"/>
<stop offset="1" stop-color="#FF008E" stop-opacity="0"/>
</linearGradient>
<linearGradient id="paint10_linear_" x1="1468.65" y1="564.546" x2="1676.97" y2="209.049" gradientUnits="userSpaceOnUse">
<stop stop-color="#8257E5"/>
<stop offset="1" stop-color="#FF008E" stop-opacity="0"/>
</linearGradient>
<linearGradient id="paint11_linear_" x1="1468.65" y1="80.3904" x2="1050.86" y2="332.502" gradientUnits="userSpaceOnUse">
<stop stop-color="#FF008E" stop-opacity="0"/>
<stop offset="1" stop-color="#FFCD1E"/>
</linearGradient>
<linearGradient id="paint12_linear_" x1="841" y1="709.595" x2="1258.79" y2="457.483" gradientUnits="userSpaceOnUse">
<stop stop-color="#FF008E" stop-opacity="0"/>
<stop offset="1" stop-color="#FFCD1E"/>
</linearGradient>
<linearGradient id="paint13_linear_" x1="841" y1="709.595" x2="1258.79" y2="457.483" gradientUnits="userSpaceOnUse">
<stop stop-color="#FF008E" stop-opacity="0"/>
<stop offset="1" stop-color="#FFCD1E"/>
</linearGradient>
<linearGradient id="paint14_linear_" x1="842" y1="-13.1495" x2="1259.79" y2="-265.261" gradientUnits="userSpaceOnUse">
<stop stop-color="#FF008E" stop-opacity="0"/>
<stop offset="1" stop-color="#FFCD1E"/>
</linearGradient>
<linearGradient id="paint15_linear_" x1="1050.22" y1="564.546" x2="841.901" y2="209.049" gradientUnits="userSpaceOnUse">
<stop stop-color="#8257E5"/>
<stop offset="1" stop-color="#FF008E" stop-opacity="0"/>
</linearGradient>
<linearGradient id="paint16_linear_" x1="1050.22" y1="564.546" x2="841.901" y2="209.049" gradientUnits="userSpaceOnUse">
<stop stop-color="#8257E5"/>
<stop offset="1" stop-color="#FF008E" stop-opacity="0"/>
</linearGradient>
<linearGradient id="paint17_linear_" x1="1259.43" y1="466.319" x2="1051.12" y2="821.816" gradientUnits="userSpaceOnUse">
<stop stop-color="#8257E5"/>
<stop offset="1" stop-color="#FF008E" stop-opacity="0"/>
</linearGradient>
<linearGradient id="paint18_linear_" x1="66" y1="70.6342" x2="116.816" y2="158.269" gradientUnits="userSpaceOnUse">
<stop stop-color="#FF008E"/>
<stop offset="1" stop-color="#FFCD1E"/>
</linearGradient>
</defs>
</svg>
